HIERARCHY
ROOT joint_Root
{
	OFFSET 0.0 0.0 0.0
	CHANNELS 6 Xposition Yposition Zposition Zrotation Xrotation Yrotation 
	JOINT Hips
	{
		OFFSET -17.1583 93.1646 452.98
		CHANNELS 6 Xposition Yposition Zposition Zrotation Xrotation Yrotation 
		JOINT Spine
		{
			OFFSET 15.7357 0.0 0.0
			CHANNELS 6 Xposition Yposition Zposition Zrotation Xrotation Yrotation 
			JOINT Chest
			{
				OFFSET 8.98455 -0.406207 0.0
				CHANNELS 6 Xposition Yposition Zposition Zrotation Xrotation Yrotation 
				JOINT Neck
				{
					OFFSET 16.3773 0.0 0.0
					CHANNELS 6 Xposition Yposition Zposition Zrotation Xrotation Yrotation 
					JOINT Head
					{
						OFFSET 6.45672 0.0 0.0
						CHANNELS 6 Xposition Yposition Zposition Zrotation Xrotation Yrotation 
						End Site
						{
							OFFSET 0.0 0.0 0.0
						}
					}
				}
				JOINT Shoulder_L
				{
					OFFSET 12.9942 -0.242716 4.98039
					CHANNELS 6 Xposition Yposition Zposition Zrotation Xrotation Yrotation 
					JOINT UpperArm_L
					{
						OFFSET 5.34809 0.0 0.0
						CHANNELS 6 Xposition Yposition Zposition Zrotation Xrotation Yrotation 
						JOINT LowerArm_L
						{
							OFFSET 24.3286 1.87007e-05 0.0
							CHANNELS 6 Xposition Yposition Zposition Zrotation Xrotation Yrotation 
							JOINT Hand_L
							{
								OFFSET 22.2916 0.0 0.0
								CHANNELS 6 Xposition Yposition Zposition Zrotation Xrotation Yrotation 
								End Site
								{
									OFFSET 0.0 0.0 0.0
								}
							}
						}
					}
				}
				JOINT Shoulder_R
				{
					OFFSET 12.9945 -0.242716 -4.98039
					CHANNELS 6 Xposition Yposition Zposition Zrotation Xrotation Yrotation 
					JOINT UpperArm_R
					{
						OFFSET -5.34813 0.0 0.0
						CHANNELS 6 Xposition Yposition Zposition Zrotation Xrotation Yrotation 
						JOINT LowerArm_R
						{
							OFFSET -24.3289 0.000322201 0.0
							CHANNELS 6 Xposition Yposition Zposition Zrotation Xrotation Yrotation 
							JOINT Hand_R
							{
								OFFSET -22.2915 -0.000108084 0.0
								CHANNELS 6 Xposition Yposition Zposition Zrotation Xrotation Yrotation 
								End Site
								{
									OFFSET 0.0 0.0 0.0
								}
							}
						}
					}
				}
			}
		}
		JOINT UpperLeg_L
		{
			OFFSET -2.19248 -6.46944 0.0
			CHANNELS 6 Xposition Yposition Zposition Zrotation Xrotation Yrotation 
			JOINT LowerLeg_L
			{
				OFFSET 39.0811 0.0 -1.23785e-05
				CHANNELS 6 Xposition Yposition Zposition Zrotation Xrotation Yrotation 
				JOINT Foot_L
				{
					OFFSET 40.9854 0.0 -1.26872e-05
					CHANNELS 6 Xposition Yposition Zposition Zrotation Xrotation Yrotation 
					JOINT Toes_L
					{
						OFFSET 11.7543 0.0 0.0
						CHANNELS 6 Xposition Yposition Zposition Zrotation Xrotation Yrotation 
						End Site
						{
							OFFSET 0.0 0.0 0.0
						}
					}
				}
			}
		}
		JOINT UpperLeg_R
		{
			OFFSET -2.19251 6.46944 0.0
			CHANNELS 6 Xposition Yposition Zposition Zrotation Xrotation Yrotation 
			JOINT LowerLeg_R
			{
				OFFSET -39.0811 -0.00228153 -0.0401928
				CHANNELS 6 Xposition Yposition Zposition Zrotation Xrotation Yrotation 
				JOINT Foot_R
				{
					OFFSET -40.9854 0.0 0.0
					CHANNELS 6 Xposition Yposition Zposition Zrotation Xrotation Yrotation 
					JOINT Toes_R
					{
						OFFSET -11.7543 0.0 0.0
						CHANNELS 6 Xposition Yposition Zposition Zrotation Xrotation Yrotation 
						End Site
						{
							OFFSET 0.0 0.0 0.0
						}
					}
				}
			}
		}
	}
}
MOTION
Frames:	4
Frame Time:	0.0333333
0.000000 0.000000 0.000000 0.000000 0.000000 -0.000000 -4.663290 92.268700 -2.150210 84.609300 1.518330 2.546670 15.735700 0.000005 -0.000001 66.175100 88.159200 -63.953000 8.984550 -0.406207 -0.000000 -4.361800 -1.721020 4.381520 16.377300 -0.000001 -0.000001 10.224600 2.283630 2.056550 6.456720 -0.000001 -0.000000 8.389570 4.753810 11.858200 12.994200 -0.242716 4.980390 -92.157100 6.182520 -70.722600 5.348090 -0.000007 -0.000001 -75.951600 -24.453800 -4.459490 24.328600 0.000019 0.000005 29.506200 -29.736600 -131.234000 22.291600 -0.000001 0.000005 59.063200 4.247120 20.600500 12.994500 -0.242716 -4.980390 87.550800 7.122520 -70.967100 -5.348130 -0.000001 -0.000004 -64.799300 -7.107740 -2.380330 -24.328900 0.000322 -0.000009 19.439000 -19.002500 -132.694000 -22.291500 -0.000108 -0.000004 59.538400 5.647080 -14.784900 -2.192480 -6.469440 -0.000000 -171.562000 3.045670 -6.183150 39.081100 -0.000007 -0.000012 0.321321 -0.637274 26.758400 40.985400 -0.000006 -0.000013 -0.620508 7.615460 -74.311400 11.754300 -0.000000 0.000003 0.000492 0.158877 -10.133200 -2.192510 6.469440 -0.000001 -169.897000 8.341130 -178.459000 -39.081100 -0.002282 -0.040193 0.082103 -0.322304 13.733800 -40.985400 0.000008 0.000006 4.636200 0.606043 -69.396100 -11.754300 -0.000006 -0.000006 -0.008987 0.263570 -5.867250
0.000000 0.000000 0.000000 0.000000 0.000000 -0.000000 -4.656780 92.261900 -2.168350 84.595300 1.541650 2.573690 15.735700 0.000005 -0.000001 66.322600 88.179300 -64.132700 8.984550 -0.406207 -0.000000 -4.396040 -1.693390 4.317550 16.377300 -0.000001 -0.000001 10.200100 2.229980 2.189350 6.456720 -0.000001 -0.000000 8.349860 4.649770 12.039200 12.994200 -0.242716 4.980390 -92.109100 6.046050 -70.727900 5.348090 -0.000007 -0.000001 -76.373700 -25.561600 -4.719960 24.328600 0.000019 0.000005 26.187200 -26.795700 -132.511000 22.291600 -0.000001 0.000005 58.901200 4.078100 23.106500 12.994500 -0.242716 -4.980390 87.581000 7.029370 -70.955500 -5.348130 -0.000001 -0.000004 -65.472400 -8.571880 -2.616400 -24.328900 0.000322 -0.000009 14.479700 -14.348300 -133.819000 -22.291500 -0.000108 -0.000004 59.558900 5.542810 -8.397650 -2.192480 -6.469440 -0.000000 -171.573000 3.100730 -6.191130 39.081100 -0.000007 -0.000012 0.327415 -0.647987 26.807200 40.985400 -0.000006 -0.000013 -0.519650 7.560210 -74.370600 11.754300 -0.000000 0.000003 0.000390 0.160785 -10.055800 -2.192510 6.469440 -0.000001 -169.889000 8.427200 -178.455000 -39.081100 -0.002282 -0.040193 0.083873 -0.328947 13.757900 -40.985400 0.000008 0.000006 4.766320 0.653046 -69.439700 -11.754300 -0.000006 -0.000006 -0.009151 0.264848 -5.815010
0.000000 0.000000 0.000000 0.000000 0.000000 -0.000000 -4.645920 92.263200 -2.177350 84.579400 1.585050 2.569090 15.735700 0.000005 -0.000001 66.751400 88.202200 -64.597500 8.984550 -0.406207 -0.000000 -4.428710 -1.647150 4.246850 16.377300 -0.000001 -0.000001 10.110800 2.138180 2.342140 6.456720 -0.000001 -0.000000 8.303720 4.520630 12.127600 12.994200 -0.242716 4.980390 -92.103400 6.045260 -70.774300 5.348090 -0.000007 -0.000001 -76.146300 -25.280900 -4.308770 24.328600 0.000019 0.000005 29.574400 -29.229100 -130.711000 22.291600 -0.000001 0.000005 58.995800 4.130900 22.337400 12.994500 -0.242716 -4.980390 87.624900 6.892420 -70.933200 -5.348130 -0.000001 -0.000004 -65.905600 -9.530300 -2.794150 -24.328900 0.000322 -0.000009 9.031960 -9.224830 -135.243000 -22.291500 -0.000108 -0.000004 60.821500 5.402800 -3.058200 -2.192480 -6.469440 -0.000000 -171.572000 3.175080 -6.219250 39.081100 -0.000007 -0.000012 0.329417 -0.651626 26.818700 40.985400 -0.000006 -0.000013 -0.491783 7.523570 -74.379700 11.754300 -0.000000 0.000003 0.000354 0.161438 -10.029300 -2.192510 6.469440 -0.000001 -169.893000 8.525800 -178.478000 -39.081100 -0.002282 -0.040193 0.083396 -0.326603 13.774000 -40.985400 0.000008 0.000006 4.707320 0.720183 -69.449800 -11.754300 -0.000006 -0.000006 -0.009270 0.265770 -5.777330
0.000000 0.000000 0.000000 0.000000 0.000000 -0.000000 -4.634620 92.265200 -2.187780 84.574300 1.605620 2.543300 15.735700 0.000005 -0.000001 67.004800 88.217000 -64.890500 8.984550 -0.406207 -0.000000 -4.450940 -1.617180 4.168560 16.377300 -0.000001 -0.000001 9.949760 2.039750 2.415550 6.456720 -0.000001 -0.000000 8.295850 4.470420 12.190100 12.994200 -0.242716 4.980390 -92.131300 6.174940 -70.915100 5.348090 -0.000007 -0.000001 -75.094700 -23.710400 -3.389370 24.328600 0.000019 0.000005 35.984100 -34.204200 -127.745000 22.291600 -0.000001 0.000005 60.143700 4.319210 19.502100 12.994500 -0.242716 -4.980390 87.676200 6.746170 -70.942700 -5.348130 -0.000001 -0.000004 -66.098900 -9.671710 -2.715150 -24.328900 0.000322 -0.000009 6.800740 -7.044660 -135.801000 -22.291500 -0.000108 -0.000004 62.273600 5.356720 -1.579260 -2.192480 -6.469440 -0.000000 -171.565000 3.192590 -6.264570 39.081100 -0.000007 -0.000012 0.325947 -0.644498 26.828200 40.985400 -0.000006 -0.000013 -0.538070 7.538730 -74.352900 11.754300 -0.000000 0.000003 0.000465 0.159394 -10.112200 -2.192510 6.469440 -0.000001 -169.889000 8.507750 -178.509000 -39.081100 -0.002282 -0.040193 0.082946 -0.324913 13.768100 -40.985400 0.000008 0.000006 4.663860 0.690698 -69.409500 -11.754300 -0.000006 -0.000006 -0.009049 0.264055 -5.847410
